<!DOCTYPE svg PUBLIC "-//W3C//DTD SVG 20010904//EN" "http://www.w3.org/TR/2001/REC-SVG-20010904/DTD/svg10.dtd">
<svg version="1.0" xmlns="http://www.w3.org/2000/svg" width="85px" height="50px" viewBox="0 0 12000 7170" preserveAspectRatio="xMidYMid meet">
<linearGradient id="lgrad" x1="0%" y1="0%" x2="100%" y2="100%" >
    <stop offset="0%" style="stop-color:rgb(0,114,255);stop-opacity:1" />
    <stop offset="100%" style="stop-color:rgb(0,198,255);stop-opacity:1" />
</linearGradient>
<g id="layer101" fill="url(#lgrad)" stroke="none">
 <path d="M8495 7141 c-33 -17 -123 -71 -200 -121 -77 -50 -167 -108 -200 -129 -33 -21 -161 -103 -285 -183 -124 -79 -273 -175 -333 -212 -119 -76 -147 -107 -155 -171 -11 -104 15 -146 146 -228 48 -30 168 -107 267 -170 99 -64 261 -167 360 -230 99 -63 233 -149 297 -190 126 -81 170 -95 236 -78 53 15 91 46 113 95 15 34 19 67 19 189 l0 147 58 0 c98 0 322 -30 452 -60 285 -67 516 -166 749 -322 200 -134 334 -254 484 -432 281 -335 451 -713 513 -1141 25 -166 25 -477 1 -640 -62 -416 -235 -806 -496 -1120 -116 -138 -150 -174 -276 -282 -372 -321 -835 -514 -1307 -545 -340 -22 -594 8 -898 109 -190 63 -454 193 -562 277 -15 12 -48 37 -75 56 -195 141 -405 361 -537 565 -22 33 -47 71 -56 85 -39 60 -162 324 -195 420 -40 116 -87 306 -104 417 -6 40 -16 184 -21 320 -6 137 -19 322 -30 413 -45 362 -153 716 -321 1052 -68 136 -120 222 -269 442 -49 73 -224 277 -317 371 -621 627 -1424 959 -2310 956 -710 -2 -1347 -216 -1918 -641 -655 -489 -1099 -1213 -1239 -2020 -36 -208 -46 -325 -46 -555 0 -360 46 -655 152 -985 65 -200 187 -478 279 -631 363 -609 884 -1069 1514 -1339 382 -164 724 -244 1143 -266 l130 -7 4 -113 c4 -101 7 -116 30 -152 59 -88 161 -112 248 -59 86 52 151 93 290 182 77 50 158 101 180 115 668 423 686 436 697 519 11 78 -33 150 -123 203 -16 10 -38 23 -49 30 -93 61 -198 128 -201 128 -2 0 -57 34 -121 76 -65 42 -143 93 -173 112 -56 35 -89 57 -240 154 -301 193 -298 191 -372 186 -61 -4 -96 -23 -131 -69 -28 -38 -36 -91 -37 -231 l0 -128 -62 0 c-370 1 -806 131 -1133 338 -130 83 -158 103 -285 210 -123 104 -279 268 -340 358 -8 12 -39 56 -67 97 -29 42 -53 79 -53 83 0 4 -6 15 -14 23 -20 22 -128 240 -162 326 -48 122 -84 245 -117 400 -31 148 -31 153 -31 435 0 283 0 286 32 440 101 481 310 862 658 1201 544 528 1325 748 2074 583 269 -60 524 -169 760 -326 401 -268 714 -663 875 -1104 95 -262 132 -470 145 -823 11 -281 19 -373 55 -561 161 -853 662 -1611 1380 -2087 366 -243 746 -398 1175 -482 214 -41 370 -55 615 -55 444 0 803 70 1245 244 221 87 540 277 765 456 141 112 396 368 509 509 385 483 619 1055 688 1675 18 169 16 524 -6 705 -58 499 -236 981 -518 1404 -270 404 -585 705 -1033 986 -188 118 -545 273 -780 339 -222 62 -496 105 -766 122 l-107 6 -4 112 c-4 131 -18 165 -89 209 -68 42 -103 43 -174 8z"/>
 <path d="M8603 5035 c-199 -56 -337 -208 -365 -401 -43 -295 181 -555 477 -555 168 0 314 77 405 213 60 90 83 177 78 293 -4 85 -7 100 -46 178 -83 167 -242 274 -422 283 -47 3 -94 -1 -127 -11z"/>
 <path d="M2780 4490 l0 -470 -475 0 -475 0 0 -395 0 -395 473 -2 472 -3 3 -472 2 -473 395 0 395 0 0 475 0 475 470 0 470 0 0 395 0 395 -470 0 -470 0 -2 468 -3 467 -392 3 -393 2 0 -470z"/>
 <path d="M7730 4113 c-298 -34 -493 -327 -410 -617 65 -229 301 -382 532 -346 251 39 430 254 416 503 -11 200 -151 380 -338 436 -72 21 -146 30 -200 24z"/>
 <path d="M9578 4110 c-166 -28 -296 -123 -365 -267 -125 -261 -3 -565 269 -667 235 -88 496 20 604 248 32 67 38 90 42 169 10 189 -65 339 -221 442 -89 59 -232 91 -329 75z"/>
 <path d="M8589 3166 c-228 -50 -390 -302 -350 -543 79 -470 714 -557 919 -126 36 76 37 80 37 198 l0 120 -42 85 c-29 59 -59 102 -99 143 -32 31 -62 57 -66 57 -5 0 -26 11 -48 25 -79 50 -229 67 -351 41z"/>
 </g>

</svg>